<svg xmlns="http://www.w3.org/2000/svg" viewBox="0 0 64 64" width="64" height="64">
  <rect width="64" height="64" rx="15" fill="#f7f3ec"/>
  <rect x="20" y="18" width="30" height="24" rx="5" fill="#4e8a85" opacity="0.9" transform="rotate(9 35 30)"/>
  <rect x="16" y="20" width="30" height="24" rx="5" fill="#c2673e" transform="rotate(-6 31 32)"/>
  <rect x="17" y="26" width="30" height="22" rx="5" fill="#d8a24a"/>
  <path d="M9.937 15.5A2 2 0 0 0 8.5 14.063l-6.135-1.582a.5.5 0 0 1 0-.962L8.5 9.936A2 2 0 0 0 9.937 8.5l1.582-6.135a.5.5 0 0 1 .962 0L14.063 8.5A2 2 0 0 0 15.5 9.937l6.135 1.582a.5.5 0 0 1 0 .962L15.5 14.063a2 2 0 0 0-1.437 1.437l-1.582 6.135a.5.5 0 0 1-.962 0z" transform="translate(35.5,27.5) scale(0.458)" fill="#f7f3ec"/>
</svg>
